PathFileType	4	(X/Y/Z)	D:\TRACE\spotREDO_2-26-24\spot_justBody_Motion_3_3-v60.trc
DataRate	CameraRate	NumFrames	NumMarkers	Units	OrigDataRate	OrigDataStartFrame	OrigNumFrames
100.00	100.00	      38	9	mm	100.00	3501	      7000
Frame#	Time	front left toe			Front right toe			aft left toe			aft right toe			Arm			FL body			FR body			AL Body			AR Body			
		X1	Y1	Z1	X2	Y2	Z2	X3	Y3	Z3	X4	Y4	Z4	X5	Y5	Z5	X6	Y6	Z6	X7	Y7	Z7	X8	Y8	Z8	X9	Y9	Z9	

3501	35.000	-339.35513	27.33827	-117.06845	137.58963	22.42102	-170.16695	-268.34595	15.76567	326.38785	194.46158	16.47835	263.22632	-87.91794	809.49823	-377.10516	-163.75177	548.94543	-341.86621	-9.16036	555.40784	-365.70413	-35.76877	560.60016	532.97339	103.89874	567.43530	513.26086	
3502	35.010	-340.07138	27.59869	-116.87692	136.85606	22.49104	-170.00050	-268.90170	15.60791	326.55222	194.05995	16.26506	263.43188	-89.07738	809.49615	-376.68842	-164.52026	548.99017	-341.64868	-9.83307	555.57874	-365.42215	-37.03280	560.49011	533.35315	102.95693	567.35638	513.64166	
3503	35.020	-340.50259	27.65034	-116.72122	137.67708	23.11134	-169.25919	-269.33386	15.38912	326.69135	193.46362	15.92586	263.60040	-90.11369	809.47534	-376.27280	-165.56976	548.79822	-341.29843	-10.88900	555.56763	-365.09567	-37.96371	560.27979	533.59839	101.55732	567.18878	514.14392	
3504	35.030	-341.10632	27.48875	-116.66101	136.05602	22.61911	-169.68785	-269.69406	14.89718	326.73920	192.90489	15.79015	263.62976	-91.05438	809.45343	-376.04712	-165.94972	548.36829	-340.62625	-11.69321	555.60901	-364.80151	-39.22986	560.00317	533.90851	100.61361	567.08014	514.54230	
3505	35.040	-341.73068	27.67916	-116.71279	135.54172	22.76810	-169.51355	-270.51337	14.61136	326.76425	192.37408	15.55517	263.61661	-91.98530	809.46204	-375.45041	-167.71558	549.05530	-341.08344	-12.52948	555.65411	-364.44260	-40.20536	559.89221	534.34528	99.68545	566.99579	514.95068	
3506	35.050	-342.66937	28.01434	-116.48677	135.07730	23.16584	-169.35271	-271.08325	14.26466	326.99918	191.83138	15.37915	263.81281	-92.89594	809.52570	-374.96649	-167.88037	548.59937	-340.32495	-13.36531	555.70068	-364.10861	-40.94541	559.60938	534.73975	98.68674	566.84521	515.32800	
3507	35.060	-343.24698	28.25197	-116.29353	134.67111	23.49936	-169.15172	-271.55637	14.15625	327.27985	191.26770	15.26931	263.82645	-93.81898	809.69397	-374.60977	-169.01764	548.76294	-339.94235	-14.45861	555.92950	-363.67316	-42.19739	559.45325	535.06171	97.55371	566.73444	515.72577	
3508	35.070	-342.85077	27.85653	-116.58555	133.80470	23.56375	-169.12675	-272.17380	13.84883	327.52243	190.50314	15.10049	263.89886	-95.18633	809.85791	-374.09421	-169.79095	548.91663	-339.66388	-15.22739	556.01611	-363.28174	-42.98112	559.25928	535.38422	96.68459	566.56195	516.14594	
3509	35.080	-343.72534	28.13051	-116.24583	133.19330	23.66934	-168.89198	-272.79181	13.58493	327.54794	190.09004	15.01304	264.05930	-96.03584	809.90393	-373.73340	-170.75418	548.82220	-339.13669	-16.77595	556.23401	-362.84332	-43.81090	559.13708	535.71118	95.89742	566.46503	516.48804	
3510	35.090	-344.28400	28.06360	-116.14771	132.82597	23.63955	-168.72603	-273.30878	13.24297	327.61923	189.41190	14.87629	264.18774	-97.07758	810.14679	-373.15271	-171.83379	549.08484	-338.62103	-17.65735	556.31165	-362.62576	-45.07108	558.90521	536.09418	94.94313	566.34485	516.80103	
3511	35.100	-344.60504	28.02350	-116.10654	132.18011	23.81396	-168.69965	-273.75531	13.02503	327.76785	188.93533	14.75743	264.31055	-97.95605	810.10712	-372.66580	-172.53540	549.17627	-338.37213	-18.71765	556.50018	-362.22693	-45.74665	558.54071	536.44214	93.83578	566.11688	517.12537	
3512	35.110	-345.33170	27.99335	-115.79093	131.56743	24.12940	-168.64374	-274.59088	12.85173	327.79163	188.26419	14.53178	264.40356	-98.79400	810.25702	-372.25870	-173.73872	549.41046	-337.98941	-19.79272	556.82770	-361.90378	-46.48655	558.51477	536.83514	93.22202	565.97839	517.42676	
3513	35.120	-346.18390	28.16488	-115.58569	130.71129	24.37165	-168.65587	-275.22482	12.78016	327.88126	187.80130	14.33739	264.45084	-100.00537	810.51917	-371.71384	-174.41815	549.45190	-337.76340	-20.49602	556.99896	-361.53043	-47.46459	558.36328	537.25793	92.17556	565.77362	517.75269	
3514	35.130	-346.53555	28.27045	-115.55600	130.17323	24.38412	-168.52274	-275.67648	12.57870	328.04248	187.27867	14.24200	264.59756	-100.91843	810.64209	-371.30151	-175.64709	549.73883	-337.35941	-21.57684	557.08691	-361.07010	-48.14223	558.15936	537.49750	91.56767	565.60413	517.89099	
3515	35.140	-346.92010	28.25816	-115.38717	129.47833	24.47405	-168.27211	-276.29410	12.34908	328.01590	186.52179	14.16220	264.69727	-101.65244	810.84406	-370.85242	-176.50238	549.73889	-336.88171	-22.40757	557.10413	-360.79358	-49.37397	557.85620	537.80188	90.22753	565.38574	518.54211	
3516	35.150	-347.86215	28.41873	-115.25976	129.15663	24.57759	-168.13434	-276.90674	11.98169	328.13846	185.73404	13.98640	264.78833	-102.64741	811.11340	-370.42181	-177.23570	549.73035	-336.53537	-23.36543	557.26300	-360.36545	-50.13114	557.71680	538.26544	89.47382	565.16400	518.81964	
3517	35.160	-348.45944	28.47833	-115.18189	129.46318	25.01408	-167.64888	-277.42493	11.89661	328.29358	184.99461	13.88750	264.84802	-103.40063	811.19049	-370.06808	-178.56255	550.05182	-336.15424	-24.28823	557.33917	-360.02774	-50.97866	557.49341	538.74567	88.70888	564.91675	519.08472	
3518	35.170	-348.74323	28.44482	-115.15813	127.68075	24.94121	-168.00754	-278.09879	11.74802	328.69843	184.47389	13.67711	264.98563	-103.69980	811.24628	-369.55673	-179.26909	550.35205	-335.92023	-25.32032	557.45245	-359.75571	-52.02733	557.28485	538.91425	87.56838	564.65503	519.46295	
3519	35.180	-349.84097	28.75602	-114.96310	127.04342	25.14730	-167.89412	-278.64697	11.53910	328.67578	183.92387	13.54383	265.06104	-104.77482	811.32623	-369.08185	-180.37793	550.57477	-335.53094	-26.07757	557.68317	-359.51953	-53.06898	557.04828	539.18805	86.63249	564.22028	519.83624	
3520	35.190	-350.62387	28.73646	-115.06480	127.24937	25.60032	-167.36864	-279.49622	11.19447	328.79263	183.09328	13.39466	265.19485	-105.71881	811.44806	-368.65164	-181.80115	551.02905	-336.02789	-26.93417	557.70337	-359.21741	-53.93627	556.87067	539.58081	85.77795	563.79431	520.30194	
3521	35.200	-350.88202	28.68635	-115.07763	125.50951	25.16212	-167.74483	-280.17999	11.01510	328.79282	182.60100	13.25279	265.13147	-106.24993	811.46478	-368.08301	-182.08224	550.71954	-334.96152	-27.62601	557.62994	-358.82776	-55.14875	556.44092	539.98273	85.17069	563.17755	520.72064	
3522	35.210	-351.86371	28.90368	-115.04524	125.21596	25.28529	-167.52809	-280.69727	10.69114	329.04245	181.93628	13.16328	265.21805	-107.00318	811.66248	-367.65985	-183.24005	550.67847	-334.61847	-28.59056	557.60846	-358.36301	-56.01796	556.23236	540.43842	83.86002	562.89569	520.95062	
3523	35.220	-352.53543	28.96230	-114.84385	124.60818	25.35047	-167.47382	-281.29736	10.60421	329.10355	181.12424	13.05542	265.29776	-108.03029	811.81342	-367.24295	-183.96342	550.83966	-334.26709	-29.42285	557.68347	-357.99417	-57.20020	556.02063	540.63049	82.63801	562.79303	521.47443	
3524	35.230	-352.92706	28.83165	-114.73450	123.76192	25.45573	-167.30902	-282.30295	10.64454	329.30142	180.48920	13.17366	265.49966	-108.70882	811.84131	-366.75903	-185.07310	551.14758	-333.69370	-30.40929	557.70050	-357.60236	-58.48197	555.68298	541.06281	81.43614	562.53979	521.89478	
3525	35.240	-354.04431	29.03856	-114.44554	122.92735	25.65506	-167.21930	-282.95828	10.39750	329.21201	179.70584	13.09071	265.52429	-109.33410	811.84955	-366.40347	-185.56715	551.19885	-333.30881	-31.41166	557.84894	-357.27429	-59.36471	555.56830	541.45703	80.18899	562.22900	522.27875	
3526	35.250	-354.53598	28.86247	-114.18311	122.26530	25.82070	-167.22951	-283.69659	10.26772	329.20154	178.81870	13.01940	265.57751	-110.63364	811.96381	-366.02750	-186.78627	551.33527	-333.00443	-32.46151	557.95074	-356.91071	-60.66525	555.23175	541.78137	79.29848	561.91577	522.52545	
3527	35.260	-354.97372	28.66225	-114.17985	121.37023	25.94844	-167.20178	-284.48447	10.11033	329.29135	178.29025	12.83081	265.61737	-111.30484	812.08826	-365.44345	-188.06854	551.60706	-332.92557	-33.41803	557.96063	-356.60336	-61.76993	555.01514	542.11792	77.98285	561.57843	522.92236	
3528	35.270	-356.11380	28.81594	-114.07285	120.96191	25.87225	-167.20673	-285.13330	10.02100	329.26288	177.30685	12.71952	265.72632	-112.04877	812.38647	-365.04721	-188.82678	551.75696	-332.51111	-34.55243	558.25586	-356.15225	-62.71894	554.82520	542.62384	77.12086	561.15997	523.34436	
3529	35.280	-356.56955	28.84367	-113.99302	121.84671	26.72973	-166.29829	-285.77646	9.86705	329.38556	176.85628	12.67913	265.77597	-113.22392	812.69232	-364.64499	-190.08954	551.90253	-331.93454	-35.66300	558.28491	-355.74567	-63.80191	554.53851	542.86926	75.92520	560.88837	523.62811	
3530	35.290	-357.37802	29.04487	-113.82848	119.26130	26.08501	-166.82391	-286.72552	9.98739	329.38571	175.82375	12.63943	265.76611	-114.12547	812.87842	-364.09869	-191.31921	552.24451	-331.82928	-36.51720	558.37006	-355.39566	-64.98078	554.16669	543.05658	74.76595	560.56085	523.95654	
3531	35.300	-358.55365	29.35068	-114.10310	118.60442	26.33352	-166.83850	-287.48404	9.84965	329.37723	175.34639	12.61512	266.00717	-115.03102	812.97241	-363.78354	-192.37247	552.45593	-331.47995	-37.62510	558.43182	-355.12726	-66.01854	554.10797	543.42664	73.91534	560.27203	524.22186	
3532	35.310	-358.88104	29.17165	-114.13071	118.48563	26.83277	-166.62724	-288.13562	9.57854	329.51276	174.64453	12.59743	266.00320	-116.27476	813.02631	-363.57626	-193.39679	552.46661	-331.18265	-38.94200	558.52722	-354.85431	-67.17216	554.05756	543.88202	72.59914	559.95178	524.56024	
3533	35.320	-359.98276	29.01324	-113.90682	116.94422	26.66591	-166.91428	-288.89871	9.50802	329.55048	173.52808	12.47410	265.88513	-117.01170	813.09332	-363.14890	-194.76997	552.58856	-330.83865	-40.05783	558.54749	-354.60907	-68.20680	553.73077	544.17462	71.78804	559.68372	524.71472	
3534	35.330	-360.62915	29.11767	-113.90845	116.48075	26.53876	-167.04848	-289.52673	9.36481	329.74713	173.06903	12.56030	265.97034	-118.00986	812.99030	-362.78912	-195.53925	552.61749	-330.56076	-41.35268	558.51172	-354.24716	-69.14001	553.63977	544.43274	70.62281	559.63904	525.18359	
3535	35.340	-360.90005	28.98474	-113.79919	116.42937	26.84726	-166.69633	-290.30038	9.14094	329.98572	172.30734	12.56107	266.00171	-119.02213	813.19598	-362.49124	-197.05096	552.86353	-330.20505	-42.39991	558.49475	-354.02643	-70.21814	553.42004	544.70593	69.52676	559.32642	525.43848	
3536	35.350	-362.13397	29.07095	-113.57446	114.68659	26.51480	-166.63495	-291.09787	9.16395	330.01065	171.30524	12.57956	266.24884	-119.96388	813.38538	-361.93918	-198.19188	553.12915	-329.95255	-43.47916	558.56122	-353.67151	-71.35490	553.17603	545.05939	68.40604	558.99829	525.72546	
3537	35.360	-362.66342	28.71482	-113.46915	114.27032	26.61194	-166.62495	-291.75708	8.96379	330.09543	170.67361	12.55340	266.18393	-120.99512	813.37714	-361.55737	-199.11130	553.09192	-329.74789	-44.63983	558.57892	-353.39795	-72.58743	553.09741	545.19769	67.15068	558.78528	525.94580	
3538	35.370	-363.18118	28.57290	-113.61808	113.35613	26.87978	-166.87447	-292.34378	8.73936	330.13565	169.97707	12.39158	266.11359	-121.84763	813.48969	-361.35684	-200.60092	553.31445	-329.41293	-45.56650	558.64539	-353.05249	-73.53069	552.92963	545.43091	66.39432	558.55688	526.17493	
